M48
;DRILL file {KiCad 4.0.6-e0-6349~53~ubuntu16.04.1} date Fri Jun 23 14:58:39 2017
;FORMAT={-:-/ absolute / metric / decimal}
FMAT,2
METRIC,TZ
T1C0.300
T2C1.000
%
G90
G05
M71
T1
X110.75Y-111.1
X112.Y-103.
X112.8Y-110.9
X113.6Y-106.
X115.6Y-103.3
X116.5Y-103.
X116.9Y-100.7
X117.Y-110.5
X117.05Y-107.
X117.3Y-103.
X118.1Y-103.
X118.7Y-101.5
X120.5Y-107.5
X120.6Y-104.5
X120.7Y-111.4
X121.1Y-106.4
X121.2Y-108.6
T2
X104.8Y-103.5
X104.8Y-106.
X104.8Y-108.
X104.8Y-110.5
X122.51Y-101.92
X122.51Y-104.46
X122.51Y-107.
X122.51Y-109.54
X122.51Y-112.08
X125.05Y-101.92
X125.05Y-104.46
X125.05Y-107.
X125.05Y-109.54
X125.05Y-112.08
T2
X103.45Y-101.3G85X101.95Y-101.3
G05
X103.45Y-112.7G85X101.95Y-112.7
G05
T0
M30
