G04 #@! TF.FileFunction,Copper,L2,Bot,Plane*
%FSLAX46Y46*%
G04 Gerber Fmt 4.6, Leading zero omitted, Abs format (unit mm)*
G04 Created by KiCad (PCBNEW 4.0.6-e0-6349~53~ubuntu16.04.1) date Fri Jun 23 14:49:20 2017*
%MOMM*%
%LPD*%
G01*
G04 APERTURE LIST*
%ADD10C,0.100000*%
%ADD11C,1.500000*%
%ADD12O,4.000000X1.500000*%
%ADD13R,1.700000X1.700000*%
%ADD14O,1.700000X1.700000*%
%ADD15C,0.500000*%
%ADD16C,0.500000*%
%ADD17C,0.200000*%
%ADD18C,0.400000*%
G04 APERTURE END LIST*
D10*
D11*
X104800000Y-103500000D03*
X104800000Y-106000000D03*
X104800000Y-108000000D03*
X104800000Y-110500000D03*
D12*
X102700000Y-112700000D03*
X102700000Y-101300000D03*
D13*
X125050000Y-112080000D03*
D14*
X122510000Y-112080000D03*
X125050000Y-109540000D03*
X122510000Y-109540000D03*
X125050000Y-107000000D03*
X122510000Y-107000000D03*
X125050000Y-104460000D03*
X122510000Y-104460000D03*
X125050000Y-101920000D03*
X122510000Y-101920000D03*
D15*
X118100000Y-103000000D03*
X120700000Y-111400000D03*
X112000000Y-103000000D03*
X115600000Y-103300000D03*
X117050000Y-107000000D03*
X110750000Y-111100000D03*
X116900000Y-100700000D03*
X112800000Y-110900000D03*
X118700000Y-101500000D03*
X113600000Y-106000000D03*
X117300000Y-103000000D03*
X116500000Y-103000000D03*
X120600000Y-104500000D03*
X117000000Y-110500000D03*
X121100000Y-106400000D03*
X121200000Y-108600000D03*
X120500000Y-107500000D03*
D16*
X112000000Y-103000000D02*
X110300000Y-104700000D01*
X110300000Y-105700000D02*
X110300000Y-104700000D01*
X110300000Y-105700000D02*
X116000000Y-111400000D01*
D17*
X118100000Y-103000000D02*
X117550001Y-103549999D01*
X117550001Y-103549999D02*
X115849999Y-103549999D01*
X115849999Y-103549999D02*
X115600000Y-103300000D01*
D16*
X116000000Y-111400000D02*
X120700000Y-111400000D01*
D18*
X112000000Y-103000000D02*
X115300000Y-103000000D01*
X115300000Y-103000000D02*
X115600000Y-103300000D01*
D16*
X121290000Y-113300000D02*
X112800000Y-113300000D01*
X112800000Y-113300000D02*
X107600000Y-113300000D01*
X112800000Y-112300000D02*
X112800000Y-113300000D01*
X107600000Y-113300000D02*
X104800000Y-110500000D01*
X122510000Y-112080000D02*
X121290000Y-113300000D01*
X112800000Y-110900000D02*
X112800000Y-112300000D01*
D17*
X118700000Y-101500000D02*
X118700000Y-103500000D01*
X113600000Y-106000000D02*
X115000000Y-106000000D01*
X118700000Y-103500000D02*
X116200000Y-106000000D01*
X116200000Y-106000000D02*
X115000000Y-106000000D01*
X117300000Y-102346447D02*
X116053553Y-101100000D01*
X117300000Y-103000000D02*
X117300000Y-102646447D01*
X117300000Y-102646447D02*
X117300000Y-102346447D01*
X116053553Y-101100000D02*
X109700000Y-101100000D01*
X109700000Y-101100000D02*
X104800000Y-106000000D01*
X115853553Y-102000000D02*
X110800000Y-102000000D01*
X110800000Y-102000000D02*
X109800000Y-103000000D01*
X116500000Y-103000000D02*
X116500000Y-102646447D01*
X116500000Y-102646447D02*
X115853553Y-102000000D01*
X109800000Y-103000000D02*
X104800000Y-108000000D01*
X120600000Y-104500000D02*
X121900000Y-103200000D01*
X121900000Y-103200000D02*
X123400000Y-103200000D01*
X123400000Y-103200000D02*
X123800000Y-103600000D01*
X123800000Y-103600000D02*
X123800000Y-108290000D01*
X123800000Y-108290000D02*
X125050000Y-109540000D01*
X117000000Y-110500000D02*
X119040000Y-110500000D01*
X120000000Y-109540000D02*
X122510000Y-109540000D01*
X119040000Y-110500000D02*
X120000000Y-109540000D01*
X121100000Y-106400000D02*
X121100000Y-106753553D01*
X121100000Y-106753553D02*
X121200000Y-106853553D01*
X121200000Y-106853553D02*
X121200000Y-107100000D01*
X121200000Y-108600000D02*
X121200000Y-107100000D01*
X121200000Y-108600000D02*
X121200000Y-108246447D01*
X120500000Y-107500000D02*
X119900000Y-106900000D01*
X119900000Y-105800000D02*
X120330000Y-105370000D01*
X120330000Y-105370000D02*
X121600000Y-105370000D01*
X119900000Y-106900000D02*
X119900000Y-105800000D01*
X121600000Y-105370000D02*
X122510000Y-104460000D01*
G36*
X100662478Y-100557538D02*
X100434866Y-100898182D01*
X100354940Y-101300000D01*
X100434866Y-101701818D01*
X100662478Y-102042462D01*
X101003122Y-102270074D01*
X101404940Y-102350000D01*
X103995060Y-102350000D01*
X104396878Y-102270074D01*
X104737522Y-102042462D01*
X104965134Y-101701818D01*
X105045060Y-101300000D01*
X104965134Y-100898182D01*
X104737522Y-100557538D01*
X104426921Y-100350000D01*
X126650000Y-100350000D01*
X126650000Y-113650000D01*
X121717818Y-113650000D01*
X122195829Y-113171989D01*
X122487470Y-113230000D01*
X122532530Y-113230000D01*
X122972616Y-113142461D01*
X123345703Y-112893173D01*
X123594991Y-112520086D01*
X123682530Y-112080000D01*
X123594991Y-111639914D01*
X123345703Y-111266827D01*
X123290588Y-111230000D01*
X123894123Y-111230000D01*
X123894123Y-112930000D01*
X123915042Y-113041173D01*
X123980745Y-113143279D01*
X124080997Y-113211778D01*
X124200000Y-113235877D01*
X125900000Y-113235877D01*
X126011173Y-113214958D01*
X126113279Y-113149255D01*
X126181778Y-113049003D01*
X126205877Y-112930000D01*
X126205877Y-111230000D01*
X126184958Y-111118827D01*
X126119255Y-111016721D01*
X126019003Y-110948222D01*
X125900000Y-110924123D01*
X124200000Y-110924123D01*
X124088827Y-110945042D01*
X123986721Y-111010745D01*
X123918222Y-111110997D01*
X123894123Y-111230000D01*
X123290588Y-111230000D01*
X122972616Y-111017539D01*
X122532530Y-110930000D01*
X122487470Y-110930000D01*
X122047384Y-111017539D01*
X121674297Y-111266827D01*
X121425009Y-111639914D01*
X121337470Y-112080000D01*
X121402957Y-112409225D01*
X121062182Y-112750000D01*
X113350000Y-112750000D01*
X113350000Y-110900000D01*
X113350095Y-110791078D01*
X113266539Y-110588857D01*
X113111957Y-110434005D01*
X113010477Y-110391867D01*
X113010476Y-110391866D01*
X113010474Y-110391866D01*
X112909882Y-110350096D01*
X112800000Y-110350000D01*
X112691078Y-110349905D01*
X112589525Y-110391866D01*
X112589524Y-110391866D01*
X112589523Y-110391867D01*
X112488857Y-110433461D01*
X112334005Y-110588043D01*
X112250096Y-110790118D01*
X112249905Y-111008922D01*
X112250000Y-111009152D01*
X112250000Y-112750000D01*
X107827818Y-112750000D01*
X105831561Y-110753743D01*
X105849818Y-110709774D01*
X105850182Y-110292058D01*
X105690666Y-109906000D01*
X105395554Y-109610372D01*
X105009774Y-109450182D01*
X104592058Y-109449818D01*
X104206000Y-109609334D01*
X103910372Y-109904446D01*
X103750182Y-110290226D01*
X103749818Y-110707942D01*
X103909334Y-111094000D01*
X104204446Y-111389628D01*
X104590226Y-111549818D01*
X105007942Y-111550182D01*
X105053528Y-111531346D01*
X107172182Y-113650000D01*
X104426921Y-113650000D01*
X104737522Y-113442462D01*
X104965134Y-113101818D01*
X105045060Y-112700000D01*
X104965134Y-112298182D01*
X104737522Y-111957538D01*
X104396878Y-111729926D01*
X103995060Y-111650000D01*
X101404940Y-111650000D01*
X101003122Y-111729926D01*
X100662478Y-111957538D01*
X100434866Y-112298182D01*
X100354940Y-112700000D01*
X100434866Y-113101818D01*
X100662478Y-113442462D01*
X100973079Y-113650000D01*
X100350000Y-113650000D01*
X100350000Y-109408432D01*
X101899861Y-109408432D01*
X102021397Y-109702572D01*
X102246245Y-109927812D01*
X102540172Y-110049861D01*
X102858432Y-110050139D01*
X103152572Y-109928603D01*
X103377812Y-109703755D01*
X103499861Y-109409828D01*
X103500139Y-109091568D01*
X103378603Y-108797428D01*
X103153755Y-108572188D01*
X102859828Y-108450139D01*
X102541568Y-108449861D01*
X102247428Y-108571397D01*
X102022188Y-108796245D01*
X101900139Y-109090172D01*
X101899861Y-109408432D01*
X100350000Y-109408432D01*
X100350000Y-106207942D01*
X103749818Y-106207942D01*
X103909334Y-106594000D01*
X104204446Y-106889628D01*
X104470429Y-107000074D01*
X104206000Y-107109334D01*
X103910372Y-107404446D01*
X103750182Y-107790226D01*
X103749818Y-108207942D01*
X103909334Y-108594000D01*
X104204446Y-108889628D01*
X104590226Y-109049818D01*
X105007942Y-109050182D01*
X105394000Y-108890666D01*
X105689628Y-108595554D01*
X105849818Y-108209774D01*
X105850182Y-107792058D01*
X105769323Y-107596363D01*
X110082843Y-103282843D01*
X110965685Y-102400000D01*
X115687867Y-102400000D01*
X116016960Y-102729093D01*
X115955347Y-102877471D01*
X115911957Y-102834005D01*
X115790804Y-102783698D01*
X115653553Y-102646447D01*
X115491342Y-102538060D01*
X115300000Y-102500000D01*
X112230064Y-102500000D01*
X112210477Y-102491867D01*
X112210476Y-102491866D01*
X112210474Y-102491866D01*
X112109882Y-102450096D01*
X112000000Y-102450000D01*
X111891078Y-102449905D01*
X111789525Y-102491866D01*
X111789524Y-102491866D01*
X111789523Y-102491867D01*
X111688857Y-102533461D01*
X111534005Y-102688043D01*
X111533910Y-102688272D01*
X109911091Y-104311091D01*
X109791866Y-104489524D01*
X109750000Y-104700000D01*
X109750000Y-105700000D01*
X109791866Y-105910476D01*
X109911091Y-106088909D01*
X115611091Y-111788909D01*
X115789524Y-111908134D01*
X116000000Y-111950000D01*
X120700000Y-111950000D01*
X120808922Y-111950095D01*
X120910475Y-111908134D01*
X120910476Y-111908134D01*
X120910477Y-111908133D01*
X121011143Y-111866539D01*
X121165995Y-111711957D01*
X121249904Y-111509882D01*
X121250095Y-111291078D01*
X121166539Y-111088857D01*
X121011957Y-110934005D01*
X120910477Y-110891867D01*
X120910476Y-110891866D01*
X120910474Y-110891866D01*
X120809882Y-110850096D01*
X120700000Y-110850000D01*
X120699907Y-110850000D01*
X120591078Y-110849905D01*
X120590848Y-110850000D01*
X119222336Y-110850000D01*
X119322843Y-110782843D01*
X120165686Y-109940000D01*
X121417035Y-109940000D01*
X121425009Y-109980086D01*
X121674297Y-110353173D01*
X122047384Y-110602461D01*
X122487470Y-110690000D01*
X122532530Y-110690000D01*
X122972616Y-110602461D01*
X123345703Y-110353173D01*
X123594991Y-109980086D01*
X123682530Y-109540000D01*
X123594991Y-109099914D01*
X123345703Y-108726827D01*
X122972616Y-108477539D01*
X122532530Y-108390000D01*
X122487470Y-108390000D01*
X122047384Y-108477539D01*
X121749933Y-108676289D01*
X121750095Y-108491078D01*
X121666539Y-108288857D01*
X121600000Y-108222202D01*
X121600000Y-107701979D01*
X121674297Y-107813173D01*
X122047384Y-108062461D01*
X122487470Y-108150000D01*
X122532530Y-108150000D01*
X122972616Y-108062461D01*
X123345703Y-107813173D01*
X123400000Y-107731912D01*
X123400000Y-108290000D01*
X123430448Y-108443074D01*
X123517157Y-108572843D01*
X123996740Y-109052426D01*
X123965009Y-109099914D01*
X123877470Y-109540000D01*
X123965009Y-109980086D01*
X124214297Y-110353173D01*
X124587384Y-110602461D01*
X125027470Y-110690000D01*
X125072530Y-110690000D01*
X125512616Y-110602461D01*
X125885703Y-110353173D01*
X126134991Y-109980086D01*
X126222530Y-109540000D01*
X126134991Y-109099914D01*
X125885703Y-108726827D01*
X125512616Y-108477539D01*
X125072530Y-108390000D01*
X125027470Y-108390000D01*
X124587384Y-108477539D01*
X124566907Y-108491221D01*
X124200000Y-108124314D01*
X124200000Y-107791776D01*
X124214297Y-107813173D01*
X124587384Y-108062461D01*
X125027470Y-108150000D01*
X125072530Y-108150000D01*
X125512616Y-108062461D01*
X125885703Y-107813173D01*
X126134991Y-107440086D01*
X126222530Y-107000000D01*
X126134991Y-106559914D01*
X125885703Y-106186827D01*
X125512616Y-105937539D01*
X125072530Y-105850000D01*
X125027470Y-105850000D01*
X124587384Y-105937539D01*
X124214297Y-106186827D01*
X124200000Y-106208224D01*
X124200000Y-105251776D01*
X124214297Y-105273173D01*
X124587384Y-105522461D01*
X125027470Y-105610000D01*
X125072530Y-105610000D01*
X125512616Y-105522461D01*
X125885703Y-105273173D01*
X126134991Y-104900086D01*
X126222530Y-104460000D01*
X126134991Y-104019914D01*
X125885703Y-103646827D01*
X125512616Y-103397539D01*
X125072530Y-103310000D01*
X125027470Y-103310000D01*
X124587384Y-103397539D01*
X124214297Y-103646827D01*
X124200000Y-103668224D01*
X124200000Y-103600000D01*
X124169552Y-103446927D01*
X124082843Y-103317157D01*
X124082840Y-103317155D01*
X123682843Y-102917157D01*
X123553074Y-102830448D01*
X123400000Y-102800000D01*
X123222407Y-102800000D01*
X123454847Y-102575569D01*
X123633800Y-102164089D01*
X123641662Y-102124549D01*
X123918338Y-102124549D01*
X123926200Y-102164089D01*
X124105153Y-102575569D01*
X124427951Y-102887244D01*
X124845450Y-103051665D01*
X125025000Y-102994731D01*
X125025000Y-101945000D01*
X125075000Y-101945000D01*
X125075000Y-102994731D01*
X125254550Y-103051665D01*
X125672049Y-102887244D01*
X125994847Y-102575569D01*
X126173800Y-102164089D01*
X126181662Y-102124549D01*
X126124709Y-101945000D01*
X125075000Y-101945000D01*
X125025000Y-101945000D01*
X123975291Y-101945000D01*
X123918338Y-102124549D01*
X123641662Y-102124549D01*
X123584709Y-101945000D01*
X122535000Y-101945000D01*
X122535000Y-101965000D01*
X122485000Y-101965000D01*
X122485000Y-101945000D01*
X121435291Y-101945000D01*
X121378338Y-102124549D01*
X121386200Y-102164089D01*
X121565153Y-102575569D01*
X121815086Y-102816890D01*
X121746926Y-102830448D01*
X121682042Y-102873802D01*
X121617157Y-102917157D01*
X121617155Y-102917160D01*
X120584328Y-103949986D01*
X120491078Y-103949905D01*
X120288857Y-104033461D01*
X120134005Y-104188043D01*
X120050096Y-104390118D01*
X120049905Y-104608922D01*
X120133461Y-104811143D01*
X120288043Y-104965995D01*
X120308152Y-104974345D01*
X120176926Y-105000448D01*
X120047157Y-105087157D01*
X119617157Y-105517157D01*
X119530448Y-105646926D01*
X119519891Y-105700000D01*
X119500000Y-105800000D01*
X119500000Y-106900000D01*
X119530448Y-107053074D01*
X119617157Y-107182843D01*
X119949986Y-107515672D01*
X119949905Y-107608922D01*
X120033461Y-107811143D01*
X120188043Y-107965995D01*
X120390118Y-108049904D01*
X120608922Y-108050095D01*
X120800000Y-107971143D01*
X120800000Y-108222163D01*
X120734005Y-108288043D01*
X120650096Y-108490118D01*
X120649905Y-108708922D01*
X120733461Y-108911143D01*
X120888043Y-109065995D01*
X121066267Y-109140000D01*
X120000000Y-109140000D01*
X119846926Y-109170448D01*
X119717157Y-109257157D01*
X118874314Y-110100000D01*
X117377837Y-110100000D01*
X117311957Y-110034005D01*
X117109882Y-109950096D01*
X116891078Y-109949905D01*
X116688857Y-110033461D01*
X116534005Y-110188043D01*
X116450096Y-110390118D01*
X116449905Y-110608922D01*
X116533461Y-110811143D01*
X116572250Y-110850000D01*
X116227818Y-110850000D01*
X110850000Y-105472182D01*
X110850000Y-104927818D01*
X112277818Y-103500000D01*
X115087538Y-103500000D01*
X115133461Y-103611143D01*
X115288043Y-103765995D01*
X115490118Y-103849904D01*
X115592825Y-103849994D01*
X115696925Y-103919551D01*
X115849999Y-103949999D01*
X117550001Y-103949999D01*
X117703075Y-103919551D01*
X117738299Y-103896015D01*
X116034314Y-105600000D01*
X113977837Y-105600000D01*
X113911957Y-105534005D01*
X113709882Y-105450096D01*
X113491078Y-105449905D01*
X113288857Y-105533461D01*
X113134005Y-105688043D01*
X113050096Y-105890118D01*
X113049905Y-106108922D01*
X113133461Y-106311143D01*
X113288043Y-106465995D01*
X113490118Y-106549904D01*
X113708922Y-106550095D01*
X113911143Y-106466539D01*
X113977798Y-106400000D01*
X116200000Y-106400000D01*
X116353074Y-106369552D01*
X116482843Y-106282843D01*
X118982843Y-103782843D01*
X119069552Y-103653074D01*
X119100000Y-103500000D01*
X119100000Y-101877837D01*
X119165995Y-101811957D01*
X119206067Y-101715451D01*
X121378338Y-101715451D01*
X121435291Y-101895000D01*
X122485000Y-101895000D01*
X122485000Y-100845269D01*
X122535000Y-100845269D01*
X122535000Y-101895000D01*
X123584709Y-101895000D01*
X123641662Y-101715451D01*
X123918338Y-101715451D01*
X123975291Y-101895000D01*
X125025000Y-101895000D01*
X125025000Y-100845269D01*
X125075000Y-100845269D01*
X125075000Y-101895000D01*
X126124709Y-101895000D01*
X126181662Y-101715451D01*
X126173800Y-101675911D01*
X125994847Y-101264431D01*
X125672049Y-100952756D01*
X125254550Y-100788335D01*
X125075000Y-100845269D01*
X125025000Y-100845269D01*
X124845450Y-100788335D01*
X124427951Y-100952756D01*
X124105153Y-101264431D01*
X123926200Y-101675911D01*
X123918338Y-101715451D01*
X123641662Y-101715451D01*
X123633800Y-101675911D01*
X123454847Y-101264431D01*
X123132049Y-100952756D01*
X122714550Y-100788335D01*
X122535000Y-100845269D01*
X122485000Y-100845269D01*
X122305450Y-100788335D01*
X121887951Y-100952756D01*
X121565153Y-101264431D01*
X121386200Y-101675911D01*
X121378338Y-101715451D01*
X119206067Y-101715451D01*
X119249904Y-101609882D01*
X119250095Y-101391078D01*
X119166539Y-101188857D01*
X119011957Y-101034005D01*
X118809882Y-100950096D01*
X118591078Y-100949905D01*
X118388857Y-101033461D01*
X118234005Y-101188043D01*
X118150096Y-101390118D01*
X118149905Y-101608922D01*
X118233461Y-101811143D01*
X118300000Y-101877798D01*
X118300000Y-102487516D01*
X118209882Y-102450096D01*
X117991078Y-102449905D01*
X117788857Y-102533461D01*
X117700000Y-102622163D01*
X117700000Y-102346447D01*
X117669552Y-102193373D01*
X117582843Y-102063604D01*
X116336396Y-100817157D01*
X116206627Y-100730448D01*
X116053553Y-100700000D01*
X109700000Y-100700000D01*
X109546927Y-100730448D01*
X109417157Y-100817157D01*
X109417155Y-100817160D01*
X105203634Y-105030680D01*
X105009774Y-104950182D01*
X104592058Y-104949818D01*
X104206000Y-105109334D01*
X103910372Y-105404446D01*
X103750182Y-105790226D01*
X103749818Y-106207942D01*
X100350000Y-106207942D01*
X100350000Y-104908432D01*
X101899861Y-104908432D01*
X102021397Y-105202572D01*
X102246245Y-105427812D01*
X102540172Y-105549861D01*
X102858432Y-105550139D01*
X103152572Y-105428603D01*
X103377812Y-105203755D01*
X103499861Y-104909828D01*
X103500139Y-104591568D01*
X103378603Y-104297428D01*
X103302739Y-104221431D01*
X104113925Y-104221431D01*
X104191132Y-104380569D01*
X104574458Y-104546543D01*
X104992120Y-104553191D01*
X105380535Y-104399501D01*
X105408868Y-104380569D01*
X105486075Y-104221431D01*
X104800000Y-103535355D01*
X104113925Y-104221431D01*
X103302739Y-104221431D01*
X103153755Y-104072188D01*
X102859828Y-103950139D01*
X102541568Y-103949861D01*
X102247428Y-104071397D01*
X102022188Y-104296245D01*
X101900139Y-104590172D01*
X101899861Y-104908432D01*
X100350000Y-104908432D01*
X100350000Y-103692120D01*
X103746809Y-103692120D01*
X103900499Y-104080535D01*
X103919431Y-104108868D01*
X104078569Y-104186075D01*
X104764645Y-103500000D01*
X104835355Y-103500000D01*
X105521431Y-104186075D01*
X105680569Y-104108868D01*
X105846543Y-103725542D01*
X105853191Y-103307880D01*
X105699501Y-102919465D01*
X105680569Y-102891132D01*
X105521431Y-102813925D01*
X104835355Y-103500000D01*
X104764645Y-103500000D01*
X104078569Y-102813925D01*
X103919431Y-102891132D01*
X103753457Y-103274458D01*
X103746809Y-103692120D01*
X100350000Y-103692120D01*
X100350000Y-102778569D01*
X104113925Y-102778569D01*
X104800000Y-103464645D01*
X105486075Y-102778569D01*
X105408868Y-102619431D01*
X105025542Y-102453457D01*
X104607880Y-102446809D01*
X104219465Y-102600499D01*
X104191132Y-102619431D01*
X104113925Y-102778569D01*
X100350000Y-102778569D01*
X100350000Y-100350000D01*
X100973079Y-100350000D01*
X100662478Y-100557538D01*
X100662478Y-100557538D01*
G37*
X100662478Y-100557538D02*
X100434866Y-100898182D01*
X100354940Y-101300000D01*
X100434866Y-101701818D01*
X100662478Y-102042462D01*
X101003122Y-102270074D01*
X101404940Y-102350000D01*
X103995060Y-102350000D01*
X104396878Y-102270074D01*
X104737522Y-102042462D01*
X104965134Y-101701818D01*
X105045060Y-101300000D01*
X104965134Y-100898182D01*
X104737522Y-100557538D01*
X104426921Y-100350000D01*
X126650000Y-100350000D01*
X126650000Y-113650000D01*
X121717818Y-113650000D01*
X122195829Y-113171989D01*
X122487470Y-113230000D01*
X122532530Y-113230000D01*
X122972616Y-113142461D01*
X123345703Y-112893173D01*
X123594991Y-112520086D01*
X123682530Y-112080000D01*
X123594991Y-111639914D01*
X123345703Y-111266827D01*
X123290588Y-111230000D01*
X123894123Y-111230000D01*
X123894123Y-112930000D01*
X123915042Y-113041173D01*
X123980745Y-113143279D01*
X124080997Y-113211778D01*
X124200000Y-113235877D01*
X125900000Y-113235877D01*
X126011173Y-113214958D01*
X126113279Y-113149255D01*
X126181778Y-113049003D01*
X126205877Y-112930000D01*
X126205877Y-111230000D01*
X126184958Y-111118827D01*
X126119255Y-111016721D01*
X126019003Y-110948222D01*
X125900000Y-110924123D01*
X124200000Y-110924123D01*
X124088827Y-110945042D01*
X123986721Y-111010745D01*
X123918222Y-111110997D01*
X123894123Y-111230000D01*
X123290588Y-111230000D01*
X122972616Y-111017539D01*
X122532530Y-110930000D01*
X122487470Y-110930000D01*
X122047384Y-111017539D01*
X121674297Y-111266827D01*
X121425009Y-111639914D01*
X121337470Y-112080000D01*
X121402957Y-112409225D01*
X121062182Y-112750000D01*
X113350000Y-112750000D01*
X113350000Y-110900000D01*
X113350095Y-110791078D01*
X113266539Y-110588857D01*
X113111957Y-110434005D01*
X113010477Y-110391867D01*
X113010476Y-110391866D01*
X113010474Y-110391866D01*
X112909882Y-110350096D01*
X112800000Y-110350000D01*
X112691078Y-110349905D01*
X112589525Y-110391866D01*
X112589524Y-110391866D01*
X112589523Y-110391867D01*
X112488857Y-110433461D01*
X112334005Y-110588043D01*
X112250096Y-110790118D01*
X112249905Y-111008922D01*
X112250000Y-111009152D01*
X112250000Y-112750000D01*
X107827818Y-112750000D01*
X105831561Y-110753743D01*
X105849818Y-110709774D01*
X105850182Y-110292058D01*
X105690666Y-109906000D01*
X105395554Y-109610372D01*
X105009774Y-109450182D01*
X104592058Y-109449818D01*
X104206000Y-109609334D01*
X103910372Y-109904446D01*
X103750182Y-110290226D01*
X103749818Y-110707942D01*
X103909334Y-111094000D01*
X104204446Y-111389628D01*
X104590226Y-111549818D01*
X105007942Y-111550182D01*
X105053528Y-111531346D01*
X107172182Y-113650000D01*
X104426921Y-113650000D01*
X104737522Y-113442462D01*
X104965134Y-113101818D01*
X105045060Y-112700000D01*
X104965134Y-112298182D01*
X104737522Y-111957538D01*
X104396878Y-111729926D01*
X103995060Y-111650000D01*
X101404940Y-111650000D01*
X101003122Y-111729926D01*
X100662478Y-111957538D01*
X100434866Y-112298182D01*
X100354940Y-112700000D01*
X100434866Y-113101818D01*
X100662478Y-113442462D01*
X100973079Y-113650000D01*
X100350000Y-113650000D01*
X100350000Y-109408432D01*
X101899861Y-109408432D01*
X102021397Y-109702572D01*
X102246245Y-109927812D01*
X102540172Y-110049861D01*
X102858432Y-110050139D01*
X103152572Y-109928603D01*
X103377812Y-109703755D01*
X103499861Y-109409828D01*
X103500139Y-109091568D01*
X103378603Y-108797428D01*
X103153755Y-108572188D01*
X102859828Y-108450139D01*
X102541568Y-108449861D01*
X102247428Y-108571397D01*
X102022188Y-108796245D01*
X101900139Y-109090172D01*
X101899861Y-109408432D01*
X100350000Y-109408432D01*
X100350000Y-106207942D01*
X103749818Y-106207942D01*
X103909334Y-106594000D01*
X104204446Y-106889628D01*
X104470429Y-107000074D01*
X104206000Y-107109334D01*
X103910372Y-107404446D01*
X103750182Y-107790226D01*
X103749818Y-108207942D01*
X103909334Y-108594000D01*
X104204446Y-108889628D01*
X104590226Y-109049818D01*
X105007942Y-109050182D01*
X105394000Y-108890666D01*
X105689628Y-108595554D01*
X105849818Y-108209774D01*
X105850182Y-107792058D01*
X105769323Y-107596363D01*
X110082843Y-103282843D01*
X110965685Y-102400000D01*
X115687867Y-102400000D01*
X116016960Y-102729093D01*
X115955347Y-102877471D01*
X115911957Y-102834005D01*
X115790804Y-102783698D01*
X115653553Y-102646447D01*
X115491342Y-102538060D01*
X115300000Y-102500000D01*
X112230064Y-102500000D01*
X112210477Y-102491867D01*
X112210476Y-102491866D01*
X112210474Y-102491866D01*
X112109882Y-102450096D01*
X112000000Y-102450000D01*
X111891078Y-102449905D01*
X111789525Y-102491866D01*
X111789524Y-102491866D01*
X111789523Y-102491867D01*
X111688857Y-102533461D01*
X111534005Y-102688043D01*
X111533910Y-102688272D01*
X109911091Y-104311091D01*
X109791866Y-104489524D01*
X109750000Y-104700000D01*
X109750000Y-105700000D01*
X109791866Y-105910476D01*
X109911091Y-106088909D01*
X115611091Y-111788909D01*
X115789524Y-111908134D01*
X116000000Y-111950000D01*
X120700000Y-111950000D01*
X120808922Y-111950095D01*
X120910475Y-111908134D01*
X120910476Y-111908134D01*
X120910477Y-111908133D01*
X121011143Y-111866539D01*
X121165995Y-111711957D01*
X121249904Y-111509882D01*
X121250095Y-111291078D01*
X121166539Y-111088857D01*
X121011957Y-110934005D01*
X120910477Y-110891867D01*
X120910476Y-110891866D01*
X120910474Y-110891866D01*
X120809882Y-110850096D01*
X120700000Y-110850000D01*
X120699907Y-110850000D01*
X120591078Y-110849905D01*
X120590848Y-110850000D01*
X119222336Y-110850000D01*
X119322843Y-110782843D01*
X120165686Y-109940000D01*
X121417035Y-109940000D01*
X121425009Y-109980086D01*
X121674297Y-110353173D01*
X122047384Y-110602461D01*
X122487470Y-110690000D01*
X122532530Y-110690000D01*
X122972616Y-110602461D01*
X123345703Y-110353173D01*
X123594991Y-109980086D01*
X123682530Y-109540000D01*
X123594991Y-109099914D01*
X123345703Y-108726827D01*
X122972616Y-108477539D01*
X122532530Y-108390000D01*
X122487470Y-108390000D01*
X122047384Y-108477539D01*
X121749933Y-108676289D01*
X121750095Y-108491078D01*
X121666539Y-108288857D01*
X121600000Y-108222202D01*
X121600000Y-107701979D01*
X121674297Y-107813173D01*
X122047384Y-108062461D01*
X122487470Y-108150000D01*
X122532530Y-108150000D01*
X122972616Y-108062461D01*
X123345703Y-107813173D01*
X123400000Y-107731912D01*
X123400000Y-108290000D01*
X123430448Y-108443074D01*
X123517157Y-108572843D01*
X123996740Y-109052426D01*
X123965009Y-109099914D01*
X123877470Y-109540000D01*
X123965009Y-109980086D01*
X124214297Y-110353173D01*
X124587384Y-110602461D01*
X125027470Y-110690000D01*
X125072530Y-110690000D01*
X125512616Y-110602461D01*
X125885703Y-110353173D01*
X126134991Y-109980086D01*
X126222530Y-109540000D01*
X126134991Y-109099914D01*
X125885703Y-108726827D01*
X125512616Y-108477539D01*
X125072530Y-108390000D01*
X125027470Y-108390000D01*
X124587384Y-108477539D01*
X124566907Y-108491221D01*
X124200000Y-108124314D01*
X124200000Y-107791776D01*
X124214297Y-107813173D01*
X124587384Y-108062461D01*
X125027470Y-108150000D01*
X125072530Y-108150000D01*
X125512616Y-108062461D01*
X125885703Y-107813173D01*
X126134991Y-107440086D01*
X126222530Y-107000000D01*
X126134991Y-106559914D01*
X125885703Y-106186827D01*
X125512616Y-105937539D01*
X125072530Y-105850000D01*
X125027470Y-105850000D01*
X124587384Y-105937539D01*
X124214297Y-106186827D01*
X124200000Y-106208224D01*
X124200000Y-105251776D01*
X124214297Y-105273173D01*
X124587384Y-105522461D01*
X125027470Y-105610000D01*
X125072530Y-105610000D01*
X125512616Y-105522461D01*
X125885703Y-105273173D01*
X126134991Y-104900086D01*
X126222530Y-104460000D01*
X126134991Y-104019914D01*
X125885703Y-103646827D01*
X125512616Y-103397539D01*
X125072530Y-103310000D01*
X125027470Y-103310000D01*
X124587384Y-103397539D01*
X124214297Y-103646827D01*
X124200000Y-103668224D01*
X124200000Y-103600000D01*
X124169552Y-103446927D01*
X124082843Y-103317157D01*
X124082840Y-103317155D01*
X123682843Y-102917157D01*
X123553074Y-102830448D01*
X123400000Y-102800000D01*
X123222407Y-102800000D01*
X123454847Y-102575569D01*
X123633800Y-102164089D01*
X123641662Y-102124549D01*
X123918338Y-102124549D01*
X123926200Y-102164089D01*
X124105153Y-102575569D01*
X124427951Y-102887244D01*
X124845450Y-103051665D01*
X125025000Y-102994731D01*
X125025000Y-101945000D01*
X125075000Y-101945000D01*
X125075000Y-102994731D01*
X125254550Y-103051665D01*
X125672049Y-102887244D01*
X125994847Y-102575569D01*
X126173800Y-102164089D01*
X126181662Y-102124549D01*
X126124709Y-101945000D01*
X125075000Y-101945000D01*
X125025000Y-101945000D01*
X123975291Y-101945000D01*
X123918338Y-102124549D01*
X123641662Y-102124549D01*
X123584709Y-101945000D01*
X122535000Y-101945000D01*
X122535000Y-101965000D01*
X122485000Y-101965000D01*
X122485000Y-101945000D01*
X121435291Y-101945000D01*
X121378338Y-102124549D01*
X121386200Y-102164089D01*
X121565153Y-102575569D01*
X121815086Y-102816890D01*
X121746926Y-102830448D01*
X121682042Y-102873802D01*
X121617157Y-102917157D01*
X121617155Y-102917160D01*
X120584328Y-103949986D01*
X120491078Y-103949905D01*
X120288857Y-104033461D01*
X120134005Y-104188043D01*
X120050096Y-104390118D01*
X120049905Y-104608922D01*
X120133461Y-104811143D01*
X120288043Y-104965995D01*
X120308152Y-104974345D01*
X120176926Y-105000448D01*
X120047157Y-105087157D01*
X119617157Y-105517157D01*
X119530448Y-105646926D01*
X119519891Y-105700000D01*
X119500000Y-105800000D01*
X119500000Y-106900000D01*
X119530448Y-107053074D01*
X119617157Y-107182843D01*
X119949986Y-107515672D01*
X119949905Y-107608922D01*
X120033461Y-107811143D01*
X120188043Y-107965995D01*
X120390118Y-108049904D01*
X120608922Y-108050095D01*
X120800000Y-107971143D01*
X120800000Y-108222163D01*
X120734005Y-108288043D01*
X120650096Y-108490118D01*
X120649905Y-108708922D01*
X120733461Y-108911143D01*
X120888043Y-109065995D01*
X121066267Y-109140000D01*
X120000000Y-109140000D01*
X119846926Y-109170448D01*
X119717157Y-109257157D01*
X118874314Y-110100000D01*
X117377837Y-110100000D01*
X117311957Y-110034005D01*
X117109882Y-109950096D01*
X116891078Y-109949905D01*
X116688857Y-110033461D01*
X116534005Y-110188043D01*
X116450096Y-110390118D01*
X116449905Y-110608922D01*
X116533461Y-110811143D01*
X116572250Y-110850000D01*
X116227818Y-110850000D01*
X110850000Y-105472182D01*
X110850000Y-104927818D01*
X112277818Y-103500000D01*
X115087538Y-103500000D01*
X115133461Y-103611143D01*
X115288043Y-103765995D01*
X115490118Y-103849904D01*
X115592825Y-103849994D01*
X115696925Y-103919551D01*
X115849999Y-103949999D01*
X117550001Y-103949999D01*
X117703075Y-103919551D01*
X117738299Y-103896015D01*
X116034314Y-105600000D01*
X113977837Y-105600000D01*
X113911957Y-105534005D01*
X113709882Y-105450096D01*
X113491078Y-105449905D01*
X113288857Y-105533461D01*
X113134005Y-105688043D01*
X113050096Y-105890118D01*
X113049905Y-106108922D01*
X113133461Y-106311143D01*
X113288043Y-106465995D01*
X113490118Y-106549904D01*
X113708922Y-106550095D01*
X113911143Y-106466539D01*
X113977798Y-106400000D01*
X116200000Y-106400000D01*
X116353074Y-106369552D01*
X116482843Y-106282843D01*
X118982843Y-103782843D01*
X119069552Y-103653074D01*
X119100000Y-103500000D01*
X119100000Y-101877837D01*
X119165995Y-101811957D01*
X119206067Y-101715451D01*
X121378338Y-101715451D01*
X121435291Y-101895000D01*
X122485000Y-101895000D01*
X122485000Y-100845269D01*
X122535000Y-100845269D01*
X122535000Y-101895000D01*
X123584709Y-101895000D01*
X123641662Y-101715451D01*
X123918338Y-101715451D01*
X123975291Y-101895000D01*
X125025000Y-101895000D01*
X125025000Y-100845269D01*
X125075000Y-100845269D01*
X125075000Y-101895000D01*
X126124709Y-101895000D01*
X126181662Y-101715451D01*
X126173800Y-101675911D01*
X125994847Y-101264431D01*
X125672049Y-100952756D01*
X125254550Y-100788335D01*
X125075000Y-100845269D01*
X125025000Y-100845269D01*
X124845450Y-100788335D01*
X124427951Y-100952756D01*
X124105153Y-101264431D01*
X123926200Y-101675911D01*
X123918338Y-101715451D01*
X123641662Y-101715451D01*
X123633800Y-101675911D01*
X123454847Y-101264431D01*
X123132049Y-100952756D01*
X122714550Y-100788335D01*
X122535000Y-100845269D01*
X122485000Y-100845269D01*
X122305450Y-100788335D01*
X121887951Y-100952756D01*
X121565153Y-101264431D01*
X121386200Y-101675911D01*
X121378338Y-101715451D01*
X119206067Y-101715451D01*
X119249904Y-101609882D01*
X119250095Y-101391078D01*
X119166539Y-101188857D01*
X119011957Y-101034005D01*
X118809882Y-100950096D01*
X118591078Y-100949905D01*
X118388857Y-101033461D01*
X118234005Y-101188043D01*
X118150096Y-101390118D01*
X118149905Y-101608922D01*
X118233461Y-101811143D01*
X118300000Y-101877798D01*
X118300000Y-102487516D01*
X118209882Y-102450096D01*
X117991078Y-102449905D01*
X117788857Y-102533461D01*
X117700000Y-102622163D01*
X117700000Y-102346447D01*
X117669552Y-102193373D01*
X117582843Y-102063604D01*
X116336396Y-100817157D01*
X116206627Y-100730448D01*
X116053553Y-100700000D01*
X109700000Y-100700000D01*
X109546927Y-100730448D01*
X109417157Y-100817157D01*
X109417155Y-100817160D01*
X105203634Y-105030680D01*
X105009774Y-104950182D01*
X104592058Y-104949818D01*
X104206000Y-105109334D01*
X103910372Y-105404446D01*
X103750182Y-105790226D01*
X103749818Y-106207942D01*
X100350000Y-106207942D01*
X100350000Y-104908432D01*
X101899861Y-104908432D01*
X102021397Y-105202572D01*
X102246245Y-105427812D01*
X102540172Y-105549861D01*
X102858432Y-105550139D01*
X103152572Y-105428603D01*
X103377812Y-105203755D01*
X103499861Y-104909828D01*
X103500139Y-104591568D01*
X103378603Y-104297428D01*
X103302739Y-104221431D01*
X104113925Y-104221431D01*
X104191132Y-104380569D01*
X104574458Y-104546543D01*
X104992120Y-104553191D01*
X105380535Y-104399501D01*
X105408868Y-104380569D01*
X105486075Y-104221431D01*
X104800000Y-103535355D01*
X104113925Y-104221431D01*
X103302739Y-104221431D01*
X103153755Y-104072188D01*
X102859828Y-103950139D01*
X102541568Y-103949861D01*
X102247428Y-104071397D01*
X102022188Y-104296245D01*
X101900139Y-104590172D01*
X101899861Y-104908432D01*
X100350000Y-104908432D01*
X100350000Y-103692120D01*
X103746809Y-103692120D01*
X103900499Y-104080535D01*
X103919431Y-104108868D01*
X104078569Y-104186075D01*
X104764645Y-103500000D01*
X104835355Y-103500000D01*
X105521431Y-104186075D01*
X105680569Y-104108868D01*
X105846543Y-103725542D01*
X105853191Y-103307880D01*
X105699501Y-102919465D01*
X105680569Y-102891132D01*
X105521431Y-102813925D01*
X104835355Y-103500000D01*
X104764645Y-103500000D01*
X104078569Y-102813925D01*
X103919431Y-102891132D01*
X103753457Y-103274458D01*
X103746809Y-103692120D01*
X100350000Y-103692120D01*
X100350000Y-102778569D01*
X104113925Y-102778569D01*
X104800000Y-103464645D01*
X105486075Y-102778569D01*
X105408868Y-102619431D01*
X105025542Y-102453457D01*
X104607880Y-102446809D01*
X104219465Y-102600499D01*
X104191132Y-102619431D01*
X104113925Y-102778569D01*
X100350000Y-102778569D01*
X100350000Y-100350000D01*
X100973079Y-100350000D01*
X100662478Y-100557538D01*
M02*
